HIERARCHY
ROOT hip
{
  OFFSET 0.0 0.0 0.0
  CHANNELS 6 Xposition Yposition Zposition Zrotation Yrotation Xrotation
  JOINT torso
  {
    OFFSET 0.0 0.0 0.0
    CHANNELS 3 Zrotation Xrotation Yrotation
    JOINT neck
    {
      OFFSET -31.42098999999993 328.8025209999999 74.3554680000002
      CHANNELS 3 Zrotation Xrotation Yrotation
      JOINT head
      {
        OFFSET 3.3519900000001144 303.81732099999994 206.53942900000015
        CHANNELS 3 Zrotation Xrotation Yrotation
        End Site
        {
          OFFSET 0.0 0.0 0.0
        }
      }
    }
    JOINT left_collar
    {
      OFFSET -31.42098999999993 328.8025209999999 74.3554680000002
      CHANNELS 3 Zrotation Xrotation Yrotation
      JOINT left_upper_arm
      {
        OFFSET -124.490479 -8.162841999999841 8.226441000000023
        CHANNELS 3 Zrotation Xrotation Yrotation
        JOINT left_forearm
        {
          OFFSET -253.595764 -1.5758060000000569 105.0729980000001
          CHANNELS 3 Zrotation Xrotation Yrotation
          JOINT left_hand
          {
            OFFSET -269.48803699999996 0.1478270000000066 -55.346191999999974
            CHANNELS 3 Zrotation Xrotation Yrotation
            End Site
            {
              OFFSET 0.0 0.0 0.0
            }
          }
        }
      }
    }
    JOINT right_collar
    {
      OFFSET -31.42098999999993 328.8025209999999 74.3554680000002
      CHANNELS 3 Zrotation Xrotation Yrotation
      JOINT right_upper_arm
      {
        OFFSET 162.02484099999998 0.46441600000002836 2.2303470000001653
        CHANNELS 3 Zrotation Xrotation Yrotation
        JOINT right_forearm
        {
          OFFSET 240.01246700000004 -25.835875999999985 121.34179699999959
          CHANNELS 3 Zrotation Xrotation Yrotation
          JOINT right_hand
          {
            OFFSET 252.48539699999992 18.910399999999868 -67.53466800000001
            CHANNELS 3 Zrotation Xrotation Yrotation
            End Site
            {
              OFFSET 0.0 0.0 0.0
            }
          }
        }
      }
    }
  }
}
MOTION
Frames: 9
Frame Time: 0.01
-407.598900678551 207.12805762011723 1305.533001185082 -3.4913615209801354 -0.6560641691874497 13.957899453180817 0.7109362052102789 -1.7836247280187458 -0.3413003381424231 -7.342095093077339 -11.34052303678804 5.482946971381133 0.0 0.0 0.0 6.41638994953327 -0.9388208938633505 11.195061848336149 41.321631255933745 9.788460607340815 19.19469273370165 49.80202312167716 -3.6159722710960085 -15.447192458470367 0.0 0.0 0.0 2.3592076862238223 -0.2042853232017173 7.306120151817337 -29.980119227302442 6.056103875500056 -23.595600296119667 -73.64924949114207 -10.937871410011816 16.13865644287194 0.0 0.0 0.0
-407.3301475761353 207.0248517736522 1305.4480146590545 -3.4907665577108125 -0.6784883749043686 13.930212505592118 0.7069394145125751 -1.7867697539395089 -0.3406529263015925 -7.328565566655925 -11.316597161718521 5.472079059786438 0.0 0.0 0.0 6.4084101972692755 -0.9396540496644233 11.204027887505426 41.329017955968446 9.796278207946667 19.17999022545465 49.78481636302759 -3.6247248969309935 -15.425324819537192 0.0 0.0 0.0 2.355954934404795 -0.20384920566043233 7.298343082012712 -30.496600055061784 5.968774704396081 -24.211921464810047 -72.69128444585137 -10.766696188892995 16.15676229249137 0.0 0.0 0.0
-407.0541030267286 206.9236313677146 1305.3555679677922 -3.490107682465607 -0.6990938026795198 13.900720041712995 0.7029264308746624 -1.7910959279989196 -0.34012040350591205 -7.314281155460105 -11.292712369669989 5.460662825762983 0.0 0.0 0.0 6.400938790829546 -0.9405211986496509 11.2131472163966 41.335846134164846 9.803987159646189 19.16520115102959 49.765292014882576 -3.634262893272915 -15.401338588809223 0.0 0.0 0.0 2.352505985652829 -0.20341846751818424 7.2914221834718544 -31.00925644121463 5.87612160831908 -24.82483115983687 -71.74364126594303 -10.586006123765586 16.196130444047935 0.0 0.0 0.0
-406.76792562847425 206.8227819761382 1305.2561087863612 -3.4897242152492036 -0.7183104107337176 13.868806047746618 0.6989670934989219 -1.796719928447593 -0.3397312545168521 -7.29895723093232 -11.26846178517975 5.448473880039472 0.0 0.0 0.0 6.39421837160716 -0.9414286767742416 11.222405915358141 41.34187850204893 9.811520894904776 19.150336157828033 49.74301569387378 -3.644598912319544 -15.375122557360028 0.0 0.0 0.0 2.3489047709666377 -0.20299969834298082 7.285494675225979 -31.513006714229594 5.77970282247517 -25.427098372252864 -70.81619360047283 -10.398707093193513 16.25559888201394 0.0 0.0 0.0
-406.4686285964019 206.7203761814697 1305.1504371111657 -3.489991383936677 -0.7367155673248693 13.83385252660851 0.6951369116857576 -1.8037187815991094 -0.33951133742299106 -7.282305219786262 -11.243371570590577 5.435282483250713 0.0 0.0 0.0 6.388496621637282 -0.942384138280255 11.231798821966168 41.34687116620037 9.818820450103019 19.13538221415232 49.71760727997902 -3.65571938889237 -15.346629775466393 0.0 0.0 0.0 2.3451941744710862 -0.2025986747755588 7.28066808637183 -32.00310246285871 5.681334950389965 -26.011654501791487 -69.91815378898502 -10.208007209773301 16.333047841891815 0.0 0.0 0.0
-406.1531966512604 206.61419834895918 1305.039747137803 -3.491313200038734 -0.7550361541574461 13.795263660270829 0.6915161018851924 -1.8121205056624838 -0.339482726117937 -7.264044450470494 -11.216909032288335 5.420862588937691 0.0 0.0 0.0 6.384019605679033 -0.9433964684829043 11.241330594929927 41.350579746754406 9.82583661544682 19.12030125352559 49.68876355232537 -3.6675796448207914 -15.315892287413137 0.0 0.0 0.0 2.341414165392447 -0.20222012146379284 7.277015903299842 -32.475256408952056 5.583032038898223 -26.57176959263063 -69.0578280942041 -10.01726202765519 16.425516141603257 0.0 0.0 0.0
-405.8187091015021 206.50177526465762 1304.9256611972112 -3.4941142154381644 -0.7741473205238343 13.752490764593565 0.6881885045985061 -1.8218957639273154 -0.33966262796522523 -7.24391458899892 -11.188492503664785 5.405001393138869 0.0 0.0 0.0 6.381024868773109 -0.9444756155104863 11.251016196700137 41.352765549469815 9.83253167692896 19.105029877301266 49.656279738602905 -3.6800992074937233 -15.28303547086769 0.0 0.0 0.0 2.3376005177215835 -0.2018675422723761 7.274574186195587 -32.925753869492205 5.4869309840745855 -27.101220854237305 -68.2424020917456 -9.829815374150243 16.529373133980386 0.0 0.0 0.0
-405.4624651787271 206.38041209085145 1304.8102534016407 -3.498830283719372 -0.7950676254607972 13.705057289235945 0.6852403694434085 -1.8329508955081328 -0.3400624089759862 -7.221688246095865 -11.157502865723957 5.3875090761146485 0.0 0.0 0.0 6.379734483143353 -0.9456323345029917 11.260880682894255 41.35320158425673 9.838880648721732 19.089480226761726 49.62006902398898 -3.6931575377825125 -15.248291438009566 0.0 0.0 0.0 2.333784189204045 -0.20154312945668695 7.273339293945311 -33.35154193004092 5.395208099196262 -27.594445702933662 -67.47776608567051 -9.648847580272882 16.640532591506844 0.0 0.0 0.0
-405.0821075840876 206.2472330828704 1304.6960607776305 -3.505898480923 -0.8189503854212403 13.65258308607897 0.6827589876023804 -1.8451226345051366 -0.3406867503159554 -7.19718330031411 -11.123296543091328 5.368228391200433 0.0 0.0 0.0 6.3803482327241 -0.9468778468746127 11.270958264065786 41.35167826250254 9.844871944543264 19.07354203739756 49.580179047952406 -3.7065903933335878 -15.212010861610457 0.0 0.0 0.0 2.3299913474595675 -0.20124775243628348 7.273266870086449 -33.75029090026148 5.309992726916276 -28.04667126217575 -66.76839010814416 -9.477241546303397 16.754690747446976 0.0 0.0 0.0
